<?xml version="1.0" encoding="utf-8"?>
<!-- Generator: Adobe Illustrator 16.0.0, SVG Export Plug-In . SVG Version: 6.00 Build 0)  -->
<!DOCTYPE svg PUBLIC "-//W3C//DTD SVG 1.1//EN" "http://www.w3.org/Graphics/SVG/1.1/DTD/svg11.dtd">
<svg version="1.1" id="Layer_1" xmlns="http://www.w3.org/2000/svg" xmlns:xlink="http://www.w3.org/1999/xlink" x="0px" y="0px"
	 width="864px" height="864px" viewBox="0 0 864 864" enable-background="new 0 0 864 864" xml:space="preserve">
<path d="M419.87,18.929c11.392,0,22.783,0,34.175,0c2.406,0.446,4.797,1.021,7.222,1.319c17.643,2.166,35.53,3.099,52.902,6.596
	c103.218,20.778,187.788,72.458,252.398,155.686c44.698,57.575,71.848,122.852,81.45,195.252c1.478,11.131,2.83,22.277,4.24,33.417
	c0,13.868,0,27.735,0,41.604c-0.454,2.397-1.041,4.778-1.343,7.194c-2.176,17.398-3.167,35.031-6.622,52.169
	c-18.164,90.115-60.838,166.822-129.777,227.748c-100.264,88.611-217.768,121.882-349.428,101.489
	C271.447,826.898,191.84,783.441,127.21,713.89c-63.309-68.128-99.744-148.68-108.702-241.44c-0.92-9.521-1.862-19.042-2.794-28.562
	c0-0.496,0-0.991,0-1.486c0.263-3.43,0.736-6.857,0.757-10.288c0.194-31,3.421-61.646,10.578-91.836
	c20.727-87.442,65.145-160.703,132.995-219.417c59.472-51.465,128.364-83.521,206.107-95.93
	C383.925,22.094,401.957,20.887,419.87,18.929z M414.015,472.367c5.242,14.505,10.207,28.243,15.712,43.477
	c5.524-15.293,10.525-29.137,15.71-43.491c13.776,6.492,27.011,12.728,41.862,19.726c-7.009-14.868-13.267-28.144-19.724-41.842
	c14.189-5.146,28.193-10.224,43.461-15.759c-15.31-5.532-29.122-10.524-43.451-15.701c6.557-13.917,12.775-27.119,19.704-41.828
	c-14.884,6.997-28.126,13.222-41.844,19.671c-5.223-14.41-10.207-28.164-15.743-43.441c-5.612,15.539-10.596,29.342-15.688,43.442
	c-13.748-6.434-26.676-12.484-39.603-18.534c-0.347,0.472-0.693,0.943-1.039,1.415c6.124,13.005,12.247,26.01,18.515,39.321
	c-14.589,5.253-28.292,10.188-43.519,15.671c15.4,5.562,29.237,10.56,43.502,15.712c-6.473,13.754-12.708,27.004-19.694,41.848
	C386.941,485.107,400.161,478.887,414.015,472.367z M631.345,502.855c-4.916-26.326-7.733-50.938,18.274-67.406
	c-27.025-15.7-23.631-40.831-20.817-66.729c-10.949,8.906-21.95,17.531-30.401,28.18c-7.349,9.26-13.815,15.802-26.505,11.514
	c-3.821-1.291-8.378-0.927-12.539-0.59c-13.724,1.111-27.421,2.558-41.128,3.875c-0.013,0.986-0.024,1.973-0.035,2.959
	c17.892,6.421,35.784,12.842,55.223,19.817c-20.416,7.361-39.345,14.186-59.991,21.63c20.524,6.691,39.54,9.184,58.465,6.323
	c11.901-1.8,19.17,0.234,26.13,10.59C606.088,485.025,617.456,494.438,631.345,502.855z M474.145,359.864
	c19.559-9.239,37.396-17.667,57.212-27.028c-8.969,19.067-17.025,36.195-25.577,54.378c16.518-7.811,35.015-22.862,47.239-39.79
	c4.893-6.775,9.578-7.948,17.697-7.144c14.242,1.411,28.726,0.394,43.107,0.394c0.201-0.635,0.404-1.27,0.606-1.905
	c-19.552-13.935-35.679-29.68-29.952-56.435c-31.082,5.146-45.665-15.509-60.02-36.759c-4.001,11.588-5.072,32.554-1.647,51.18
	c1.037,5.638-0.336,8.303-4.654,11.491C500.088,321.58,485.468,337.991,474.145,359.864z M245.206,343.481
	c17.923,3.311,34.044,3.813,50.214,1.205c5.357-0.864,9.433-0.834,13.254,4.605c10.758,15.313,24.508,27.739,40.343,37.778
	c1.488,0.944,3.219,1.504,5.981,2.764c-9.077-19.201-17.539-37.1-26.961-57.032c20.343,9.608,38.593,18.227,58.689,27.718
	c-1.714-3.493-2.326-5.01-3.158-6.396c-10.329-17.211-24.221-31.09-39.945-43.389c-2.137-1.671-3.63-5.582-3.549-8.402
	c0.22-7.621,2.17-15.218,2.1-22.813c-0.09-9.774-1.48-19.536-2.312-29.304c-15.958,21.434-31.044,41.354-61.83,35.468
	C283.133,313.658,266.223,328.865,245.206,343.481z M239.188,703.297c-2.775-29.939-1.613-58.755,10.864-87.519
	c-28.825,11.96-57.512,13.806-86.24,10.561c-0.763,1.086-1.201,1.443-1.289,1.872c-4.966,24.186-4.83,48.538-2.043,72.926
	c0.175,1.533,2.514,3.862,4.05,4.04C189.133,707.997,213.697,708.038,239.188,703.297z M451.956,516.145
	c-7.736,21.609-14.739,41.174-22.235,62.114c-7.258-20.237-13.939-38.862-21.261-59.276c-6.151,21.419-7.096,41.283-4.101,61.216
	c0.99,6.592-0.33,10.2-5.819,14.073c-12.709,8.965-23.53,20.005-32.769,34.038c24.602-3.07,48.063-5.654,63.302,18.725
	c17.543-25.335,42.227-21.619,67.684-18.084c-9.001-10.938-17.439-22.341-28.417-30.197c-10.66-7.629-12.839-15.205-10.769-27.47
	C460.597,553.364,457.708,535.441,451.956,516.145z M105.009,379.702c-15.841,9.015-47.622,39.981-54.91,53.348
	c16.46,20.967,35.041,39.757,57.605,54.733c18.816-22.637,39.865-41.003,67.719-52.023
	C145.988,423.755,123.996,403.923,105.009,379.702z M449.137,344.867c1.068-2.44,1.564-3.26,1.796-4.149
	c5.121-19.641,6.25-39.566,2.879-59.529c-1.017-6.016,1.082-8.75,5.476-11.897c12.024-8.612,22.386-18.964,31.74-32.13
	c-24.13,3.396-46.113,3.899-60.599-18.881c-17.625,24.988-42.016,21.554-67.711,16.711c9.845,14.661,20.976,26.078,34.303,35.227
	c4.269,2.93,5.312,6.064,4.96,11.042c-0.867,12.291-1.898,24.687-1.166,36.939c0.628,10.52,3.607,20.898,5.547,31.339
	c0.769-0.033,1.539-0.066,2.309-0.099c6.806-18.958,13.612-37.915,21.075-58.704C436.49,309.563,442.538,326.446,449.137,344.867z
	 M580.875,581.943c-4.741-28.181,13.405-43.055,33.793-57.372c-17.913-3.313-34.374-3.756-50.821-0.708
	c-5.01,0.928-7.877-0.863-11.224-4.617c-9.174-10.287-18.729-20.299-28.834-29.665c-5.484-5.085-12.396-8.633-18.663-12.874
	c-0.383,0.494-0.766,0.988-1.149,1.482c8.772,18.551,17.545,37.101,26.318,55.651c-0.435,0.38-0.869,0.759-1.303,1.138
	c-17.338-8.146-34.675-16.291-53.317-25.05c7.265,15.055,21.187,32.083,38.132,44.13c7.214,5.13,7.303,10.194,6.697,17.848
	c-1.066,13.48-0.298,27.106-0.298,40.67C536.218,592.848,551.762,575.183,580.875,581.943z M430.711,173.93
	c10.845-28.212,29.773-48.474,51.143-67.236c-15.269-21.79-33.077-39.965-53.786-55.848c-19.596,15.932-36.864,33.244-51.289,53.592
	C399.952,123.385,419.161,144.629,430.711,173.93z M611.16,613.874c11.255,26.771,12.894,53.147,10.665,79.926
	c-0.451,5.411,1.807,6.901,6.569,7.205c8.383,0.531,16.745,1.981,25.117,1.995c14.668,0.021,29.337-0.756,44.13-1.201
	c2.383-26.692,3.39-51.358-1.305-75.925C666.931,628.009,639.259,626.632,611.16,613.874z M698.747,240.029
	c4.638-25.988,4.712-51.192,1.36-76.682c-24.562-2.828-48.367-3.025-72.765,0.559c2.036,29.731,1.548,58.61-11.139,87.124
	C643.645,239.651,670.476,237.42,698.747,240.029z M328.009,536.238c8.923-18.895,16.958-35.905,25.874-54.783
	c-20.386,11.147-35.581,25.009-47.839,41.902c-3.831,5.279-7.623,5.238-13.113,4.788c-13.09-1.071-26.247-1.311-39.377-1.886
	c-0.304,0.764-0.606,1.529-0.909,2.293c19.13,13.773,34.716,29.373,29.055,56.035c27.152-5.353,42.161,11.108,56.604,30.87
	c0.581-3.389,1.295-5.494,1.239-7.578c-0.324-12.082-0.469-24.189-1.446-36.227c-0.415-5.107,0.355-8.203,4.618-11.709
	c9.32-7.664,18.346-15.87,26.394-24.842c6.589-7.345,11.589-16.115,17.293-24.254c-0.521-0.511-1.042-1.021-1.563-1.533
	C366.495,518.006,348.152,526.695,328.009,536.238z M219.896,435.981c21.668,14.112,21.95,35.226,19.885,58.041
	c9.789-8.883,19.667-17.615,27.237-28.027c5.271-7.251,10.526-7.657,18.104-6.691c18.872,2.406,37.625,1.585,57.647-4.414
	c-19.492-7.008-37.462-13.469-56.776-20.413c21.141-7.575,40.739-14.595,61.634-22.081c-3.12-1.216-4.63-1.987-6.233-2.402
	c-19.355-5.016-38.972-6.686-58.76-3.472c-6.825,1.109-11.013-0.561-15.482-6.22c-8.162-10.336-17.699-19.584-26.663-29.286
	c-0.696,0.354-1.391,0.708-2.086,1.062C241.974,396.146,244.721,419.971,219.896,435.981z M428.865,691.374
	c-11.173,27.993-29.644,48.558-51.09,66.894c15.11,21.014,32.478,38.646,52.517,54.006c19.638-15.16,36.817-31.986,51.3-52.299
	C459.212,741.267,440.345,720.327,428.865,691.374z M247.199,254.295c-12.934-28.788-13.245-57.455-11.174-88.498
	c-19.695,0-38.365-0.411-57.007,0.129c-15.226,0.441-15.54,0.916-16.9,16.084c-1.81,20.174-1.266,40.303,2.689,60.604
	C192.654,240.408,219.473,242.381,247.199,254.295z M759.604,486.516c19.371-13.844,35.642-30.227,50.049-48.527
	c0.743-0.943,0.726-3.5-0.023-4.45c-14.712-18.675-31.285-35.44-51.094-49.557c-18.538,22.042-39.615,40.163-67.987,51.158
	C719.577,445.781,740.566,464.473,759.604,486.516z M122.834,369.204c6.813,7.199,13.223,14.714,20.407,21.398
	c13.305,12.381,28.114,22.537,46,27.285c20.239,5.373,32.875-4.8,29.938-24.351c-9.718-0.001-18.238-2.675-21.325-13.178
	c-3.451-11.744,3.841-18.137,13.569-23.145C186.046,347.465,143.277,353.261,122.834,369.204z M554.991,251.258
	c13.93,15.611,26.531,15.295,37.494-1.545c16.098-24.725,15.961-52.433,14.216-80.53c-26.016,3.308-61.992,28.396-70.968,49.522
	c10.699-2.639,20.556-2.094,25.368,9.025C564.954,236.631,563.405,245.134,554.991,251.258z M366.077,122.682
	c-15.117,19.811-23.248,62.312-15.645,81.665c5.342-8.61,12.462-13.687,22.772-10.749c12.031,3.428,13.914,13.122,13.075,23.757
	c21.538,1.857,31.323-8.882,26.481-28.862C405.956,160.409,387.125,140.809,366.077,122.682z M310.214,253.962
	c-10.744-8.401-13.489-16.052-9.482-24.668c4.001-8.604,11.615-11.326,26.35-8.901c-17.208-25.823-41.204-39.984-72.118-48.483
	c1.156,17.576,1.254,33.616,3.528,49.343c2.049,14.173,6.936,27.83,17.55,38.403c7.835,7.805,16.271,8.414,25.231,1.928
	C304.234,259.44,306.865,256.841,310.214,253.962z M601.939,695.224c0-9.137,0.262-17.263-0.053-25.365
	c-0.755-19.412-3.611-38.388-14.344-55.173c-11.063-17.305-24.97-18.017-38.319-2.046c7.661,6.177,9.673,14.444,6.353,23.22
	c-3.927,10.373-13.664,9.358-23.34,9.053C548.538,671.397,572.119,686.138,601.939,695.224z M471.518,647.911
	c-17.699-1.446-28.396,7.821-25.889,22.942c5.079,30.63,24.607,51.705,47.201,70.971c16.021-23.69,22.641-60.844,15.239-83.51
	c-5.312,10.649-13.02,14.753-22.933,12.208C474.946,667.905,470.556,660.824,471.518,647.911z M168.603,605.525
	c14.212,0,28.08,1.096,41.696-0.288c15.737-1.599,31.048-6.028,43.464-16.823c10.769-9.363,11.161-18.346,1.438-29.647
	c-7.894,6.771-16.951,8.19-25.86,2.915c-9.786-5.794-9.866-15.135-5.692-25.417C197.758,548.29,173.355,579.13,168.603,605.525z
	 M307.129,611.753c-11.331-11.576-23.649-10-33.375,5.287c-15.791,24.819-16.396,52.41-13.97,81.315
	c30.547-9.885,54.698-26.062,70.274-55.285c-11.304,2.363-21.181,3.468-27.684-6.818
	C297.501,628.544,298.957,621.744,307.129,611.753z M741.506,497.687c-3.664-3.988-6.845-7.722-10.311-11.171
	c-15.258-15.192-32.138-27.881-53.553-33.021c-18.527-4.446-30.445,5.652-28.103,23.514c13.07,1.412,18.898,5.311,20.474,15.242
	c0.651,4.101,0.042,9.129-1.894,12.706c-1.915,3.539-6.225,5.78-9.318,8.447C680.278,520.331,718.114,513.467,741.506,497.687z
	 M610.794,554.312c-14.082,14.068-13.155,26.363,3.078,36.707c23.693,15.097,50.127,15.858,77.094,14.407
	c-3.468-25.24-29.219-61.245-46.425-67.036c1.482,11.45-1.229,18.146-8.928,22.043C627.131,564.728,620.337,563.105,610.794,554.312
	z M657.124,357.238c11.574,5.973,14.589,14.485,11.951,24.438c-2.673,10.087-11.677,10.699-20.093,10.705
	c-2.636,16.83,6.504,27.394,22.207,25.226c29.835-4.12,49.964-23.447,69.731-45.066C714.716,358.339,688.52,350.98,657.124,357.238z
	 M353.474,654.372c-7.937,30.933-1.54,58.473,12.941,85.648c18.245-15.237,33.252-31.974,41.558-53.697
	c2.5-6.537,4.157-13.827,4.188-20.782c0.051-11.854-8.535-18.556-20.461-17.524c-0.577,13.231-3.459,18.164-11.839,20.266
	C368.671,671.087,361.986,667.751,353.474,654.372z M504.372,210.752c8.08-30.896,2.964-58.439-12.283-87.118
	c-10.665,12.41-20.751,23.165-29.668,34.815c-7.989,10.438-13.396,22.415-15.096,35.714c-1.823,14.273,5.12,22.585,20.063,23.463
	c-0.089-10.145,4.168-17.86,14.508-20.136C492.197,195.224,499.444,200.184,504.372,210.752z M611.164,308.123
	c7.553-6.517,15.469-8.815,24.144-3.805c9.596,5.541,9.919,14.59,7.775,24.991c26.7-16.236,41.761-39.55,51.177-69.854
	c-13.448,0.614-25.48,0.457-37.324,1.877c-15.766,1.889-31.072,5.964-43.706,16.424C601.808,287.212,601.18,296.181,611.164,308.123
	z M713.378,263.204c-8.345,28.633-21.873,52.459-45.247,72.533c31.863-1.873,58.967,6.677,84.853,21.016
	c4.318-7.255,8.175-13.733,12.373-20.783c-12.46-6.087-24.082-11.98-35.905-17.437c-4.737-2.187-5.833-4.515-4.021-9.657
	c4.54-12.906,8.333-26.075,12.648-39.849C729.528,267.012,721.733,265.174,713.378,263.204z M219.667,333.185
	c-3.466-10.32-4.071-19.294,4.952-25.507c9.727-6.697,18.564-3.234,26.426,3.85c9.854-11.92,9.487-21.785-1.332-30.598
	c-4.351-3.544-9.324-6.581-14.452-8.866c-15.575-6.943-32.159-9.255-49.086-9.469c-5.283-0.067-10.566-0.011-17.006-0.011
	C178.138,292.818,192.763,316.48,219.667,333.185z M218.72,471.11c-1.486-14.777-10.749-21.599-26.671-18.01
	c-27.74,6.252-47.611,24.271-66.167,45.674c28.493,14.073,56.748,19.47,87.645,9.386c-13.708-6.742-17.969-12.718-16.388-22.105
	C198.66,477.021,205.213,472.482,218.72,471.11z M554.081,142.105c-7.529-14.454-14.686-28.191-22.28-42.77
	c-7.995,4.738-15.484,9.176-21.822,12.931c4.957,14.193,10.644,26.904,13.696,40.218c3.057,13.334,3.484,27.271,5.068,40.986
	c19.358-22.766,44.965-36.273,74.731-44.504c-1.914-7.398-3.726-14.409-5.641-21.815
	C582.94,132.241,568.773,137.083,554.081,142.105z M739.198,595.338c-4.716-13.794-8.741-26.471-13.447-38.89
	c-1.897-5.005-1.097-7.424,3.741-9.746c11.289-5.417,22.315-11.379,33.996-17.402c-3.465-5.399-6.616-10.313-9.91-15.447
	c-24.502,14.201-50.202,22.249-79.994,21.379c19.728,19.931,30.643,42.32,37.948,67.411
	C721.023,600.136,729.762,597.829,739.198,595.338z M327.854,190.362c-0.062-29.55,7.79-55.369,21.74-79.81
	c-6.516-3.761-12.158-7.018-18.159-10.48c-7.173,14.592-13.965,28.408-20.701,42.113c-15.201-4.757-29.62-9.27-44.658-13.975
	c-2.219,8.912-4.145,16.648-6.147,24.696C285.525,160.129,307.981,170.924,327.854,190.362z M528.336,765.463
	c5.784-11.853,11.553-22.498,16.192-33.615c2.843-6.811,6.116-7.813,12.751-5.313c11.023,4.151,22.428,7.289,34.521,11.122
	c2.13-7.937,4.079-15.199,6.21-23.144c-25.391-7.594-47.932-19.242-67.439-39.292c0.265,29.335-7.634,54.674-21.557,78.726
	C515.394,757.749,521.495,761.386,528.336,765.463z M330.63,676.55c-19.213,21.275-41.958,33.196-67.852,41.338
	c1.982,7.551,3.824,14.566,5.754,21.916c15.051-5.128,29.229-9.961,43.726-14.901c6.784,12.938,13.369,25.497,20.156,38.442
	c6.496-3.962,12.161-7.417,18.4-11.222C337.971,728.956,330.302,704.766,330.63,676.55z M190.934,534.195
	c-13.502-1.822-26.579-2.581-39.126-5.562c-12.83-3.048-25.142-8.275-38.594-12.86c-3.011,4.966-6.488,10.702-10.201,16.826
	c14.063,6.951,27.265,13.476,40.448,19.99c-4.814,15.42-9.4,30.108-14.166,45.376c7.014,1.68,12.872,3.082,19.163,4.588
	C156.564,575.478,169.919,552.473,190.934,534.195z M101.63,335.409c3.375,5.883,6.396,11.148,9.634,16.791
	c23.501-12.963,48.107-19.632,75.746-19.799c-19.338-19.408-30.096-41.848-37.438-66.602c-7.611,1.822-14.385,3.443-21.809,5.219
	c5.104,15.047,9.809,28.916,14.635,43.142C128.761,321.269,115.674,328.09,101.63,335.409z M717.654,623.917
	c0,22.723,0,45.901,0,69.079c27.242-27.64,48.783-57.968,64.982-91.861C760.36,608.944,738.475,616.618,717.654,623.917z
	 M619.181,720.502c-7.047,19.945-14.205,40.207-21.534,60.954c32.938-15.47,63.273-34.568,90.668-58.596
	C664.685,722.054,641.804,721.274,619.181,720.502z M801.073,309.353c-9.988,20.117-19.747,39.77-29.084,58.573
	c16.146,15.311,32.477,30.8,49.345,46.796C819.538,378.351,812.896,343.418,801.073,309.353z M722.318,176.571
	c-1.015,22.858-1.977,44.589-2.889,65.15c20.748,7.014,41.199,13.926,62.031,20.969
	C765.761,231.405,746.314,203.056,722.318,176.571z M800.727,557.968c11.591-32.862,18.257-66.355,20.269-100.895
	c-16.608,15.734-32.651,30.933-48.12,45.586C781.968,520.717,791.141,538.935,800.727,557.968z M67.641,557.847
	c9.167-18.292,18.182-36.281,26.992-53.86c-15.109-13.359-30.707-27.151-46.82-41.399C50.159,495.492,56.702,527.224,67.641,557.847
	z M141.384,181.756c-21.733,25.013-40.053,51.784-54.491,81.188c19.493-6.277,38.363-12.352,57.195-18.416
	C143.217,224.314,142.319,203.455,141.384,181.756z M257.452,91.53c-28.955,14.937-55.436,32.382-78.942,53.485
	c20.397,0.854,40.5,1.696,59.999,2.512C244.719,129.17,250.912,110.861,257.452,91.53z M550.985,799.261
	c-18.159-9.02-35.759-17.763-53.215-26.434c-12.985,14.118-26.395,28.695-40.208,43.714
	C489.741,814.361,520.656,809.08,550.985,799.261z M684.596,143.169c0.213-0.797,0.428-1.596,0.643-2.394
	c-24.138-20.111-50.053-37.478-78.69-51.254c6.282,18.758,12.313,36.761,17.97,53.648
	C644.745,143.169,664.67,143.169,684.596,143.169z M47.999,402.253c15.603-13.851,30.125-26.742,44.199-39.236
	c-8.237-17.296-16.539-34.729-25.196-52.908C56.874,340.099,50.223,370.24,47.999,402.253z M497.969,93.897
	c17.426-8.856,34.854-17.714,52.727-26.797c-29.973-9.397-60.135-14.974-91.504-16.913
	C472.593,65.292,485.332,79.652,497.969,93.897z M401.961,815.702c-14.15-15.698-27.344-30.335-40.231-44.633
	c-16.754,8.622-33.616,17.301-50.876,26.183C340.5,807.062,370.431,813.352,401.961,815.702z M87.475,605.099
	c14.196,27.449,30.488,52.63,50.789,75.719c1.455-19.813,2.838-38.653,4.191-57.087C124.655,617.698,106.583,611.574,87.475,605.099
	z M184.925,727.16c23.223,19.228,47.371,35.313,74.152,48.461c-6.049-18.187-11.75-35.326-17.273-51.931
	C223.145,724.828,204.708,725.952,184.925,727.16z M314.042,68.273c16.173,8.196,31.492,15.959,46.658,23.646
	c11.598-13.181,23.232-26.402,35.853-40.746C367.67,54,340.672,59.54,314.042,68.273z M540.938,389.104
	c12.17,0,23.497,0.036,34.824-0.046c1.377-0.01,3.215-0.206,4.053-1.075c8.559-8.879,16.955-17.915,26.109-27.666
	c-12.271,0-23.609-0.065-34.945,0.078c-1.516,0.02-3.438,0.691-4.462,1.747C558.165,370.751,549.983,379.522,540.938,389.104z
	 M502.789,257.138c-6.96,6.297-13.034,12.491-19.836,17.745c-6.474,5.002-9.983,9.977-8.545,18.996
	c1.457,9.128,0.321,18.669,0.321,27.74c8.704-8.245,17.34-16.308,25.788-24.562c1.219-1.19,2.146-3.292,2.173-4.988
	C502.876,280.306,502.789,268.538,502.789,257.138z M255.914,507.085c5.585,0,11.166-0.906,16.331,0.172
	c14.911,3.115,25.75-1.751,34.277-14.196c3.386-4.941,8.752-8.525,14.562-13.993c-13.355,0-24.677-0.067-35.995,0.082
	c-1.509,0.021-3.406,0.764-4.44,1.832C272.322,489.58,264.161,498.338,255.914,507.085z M784.548,288.983
	c-10.256-4.807-19.666-9.218-29.512-13.833c-3.507,11.002-6.618,20.761-9.862,30.937c9.404,4.581,18.379,8.951,28.143,13.707
	C777.072,309.489,780.582,299.863,784.548,288.983z M548.012,91.503c5.42,10.407,10.146,19.483,14.955,28.718
	c9.773-3.426,18.901-6.626,28.934-10.144c-4.429-9.012-8.271-17.215-12.564-25.174c-0.697-1.291-3.689-2.47-5.135-2.045
	C565.789,85.332,557.521,88.3,548.012,91.503z M301.479,120.451c4.617-9.572,9.011-18.687,13.716-28.442
	c-8.568-3.12-16.091-6.048-23.767-8.498c-1.551-0.495-4.734,0.238-5.376,1.396c-4.692,8.462-8.929,17.177-13.608,26.401
	C282.885,114.596,291.944,117.448,301.479,120.451z M121.796,561.915c-9.021-4.433-17.575-8.636-26.936-13.235
	c-3.755,10.163-7.298,19.75-11.114,30.076c9.658,4.511,18.665,8.717,28.412,13.269C115.547,581.439,118.592,571.928,121.796,561.915
	z M745.587,558.792c3.589,10.288,6.943,19.908,10.566,30.298c8.386-4.229,15.915-7.829,23.201-11.869
	c1.449-0.804,3.143-3.702,2.716-4.944c-3.071-8.932-6.661-17.684-10.28-26.987C762.543,550.055,754.485,554.206,745.587,558.792z
	 M93.75,319.173c8.549-4.401,15.861-7.966,22.923-11.971c1.436-0.814,3.069-3.641,2.669-4.945
	c-2.569-8.394-5.678-16.621-8.872-25.643c-8.144,3.765-15.621,6.929-22.752,10.741c-1.606,0.858-3.236,4.331-2.755,5.989
	C87.417,301.792,90.562,310.04,93.75,319.173z M585.765,754.638c-9.859-3.121-18.663-5.907-27.873-8.82
	c-4.546,9.404-8.783,18.173-13.314,27.546c9.436,3.364,18.145,6.469,27.246,9.714C576.529,773.477,580.85,764.665,585.765,754.638z
	 M274.602,756.774c3.853,8.137,7.052,15.286,10.688,22.205c0.632,1.203,3.417,2.384,4.678,1.968
	c8.707-2.866,17.272-6.158,26.348-9.486c-4.701-8.984-8.771-16.764-12.901-24.66C293.783,750.136,284.771,753.254,274.602,756.774z
	 M384.244,549.212c-8.847,8.116-16.397,15.019-23.904,21.969c-0.69,0.639-1.57,1.566-1.579,2.369
	c-0.11,9.589-0.071,19.18-0.071,30.091c8.788-8.102,15.95-14.481,22.791-21.189c1.507-1.479,2.567-4.098,2.641-6.232
	C384.417,567.675,384.244,559.116,384.244,549.212z M478.311,548.512c-0.612,9.986-1.251,19.259-1.669,28.543
	c-0.057,1.248,0.668,2.904,1.594,3.768c6.917,6.452,13.976,12.753,22.413,20.389c0-11.001,0.099-20.523-0.106-30.04
	c-0.031-1.42-1.216-3.097-2.335-4.164C491.823,560.917,485.297,554.975,478.311,548.512z M381.39,317.975
	c0-11.161,0.046-21.001-0.047-30.84c-0.015-1.622-0.093-3.826-1.084-4.76c-5.988-5.636-12.251-10.98-18.442-16.442
	c-0.483,10.146-1.112,19.703-1.258,29.266c-0.033,2.111,1.11,4.787,2.624,6.274C368.601,306.796,374.411,311.721,381.39,317.975z
	 M546.908,483.016c5.984,6.529,11.152,12.505,16.75,18.046c1.468,1.452,4.256,2.12,6.463,2.178c9.091,0.236,18.192,0.1,28.432,0.1
	c-6.626-7.419-12.296-13.879-18.135-20.182c-0.857-0.926-2.535-1.601-3.804-1.556C567.034,481.939,557.462,482.485,546.908,483.016z
	 M315.114,386.526c-6.958-7.734-12.428-13.929-18.068-19.964c-0.873-0.934-2.52-1.59-3.819-1.608
	c-9.758-0.133-19.519-0.072-30.715-0.072c6.695,7.535,12.145,13.784,17.765,19.875c0.88,0.955,2.525,1.674,3.828,1.692
	C293.864,386.59,303.626,386.526,315.114,386.526z"/>
</svg>
