<?xml version="1.0" encoding="UTF-8" standalone="no"?>
<!-- Created with Inkscape (http://www.inkscape.org/) -->
<svg id="svg2" xmlns:rdf="http://www.w3.org/1999/02/22-rdf-syntax-ns#" xmlns="http://www.w3.org/2000/svg" height="34" width="146" version="1.1" xmlns:cc="http://creativecommons.org/ns#" xmlns:dc="http://purl.org/dc/elements/1.1/">
 <metadata id="metadata7">
  <rdf:RDF>
   <cc:Work rdf:about="">
    <dc:format>image/svg+xml</dc:format>
    <dc:type rdf:resource="http://purl.org/dc/dcmitype/StillImage"/>
    <dc:title/>
   </cc:Work>
  </rdf:RDF>
 </metadata>
 <g id="layer1" fill="#063" transform="translate(0,-1018.3622)">
  <path id="path3050" d="m21.813,1051.9c-0.2624-0.2624,0.32456-4.4249,1.3044-9.25,2.468-12.154,2.7434-17.773,0.8712-17.773-2.9468,0-6.5291,8.2351-9.0263,20.75-1.0292,5.1581-1.4043,5.75-3.6438,5.75-1.9162,0-2.3713-0.4068-1.9577-1.75,4.2342-13.753,5.6721-27.112,3.144-29.21-3.3104-2.7474-9.548,2.2699-9.548,7.6801,0,3.79,1.7899,4.9981,4.9219,3.3219,1.6749-0.8964,2.0781-0.8211,2.0781,0.3878,0,1.6158-2.9358,3.5704-5.3628,3.5704-4.2395,0-6.1648-7.374-3.0765-11.783,3.1083-4.4377,10.183-6.4946,14.462-4.2047,1.0402,0.5567,2.1907,2.6084,2.5567,4.5593l0.66546,3.5472,2.192-2.0593c3.7203-3.4951,7.5631-2.0583,7.5631,2.8278v2.4871l2.8047-2.6871c6.964-6.672,10.286-0.066,6.6953,13.313-1.7974,6.6966-1.9161,10.305-0.32144,9.7738,1.6168-0.5389,2.6097-2.617,3.2852-6.8758,0.43641-2.7513,1.344-4.0181,3.843-5.3639,3.8556-2.0764,7.0303-1.7379,7.5194,0.8018,0.4116,2.1372-2.3959,5.5378-5.5762,6.7541-1.2375,0.4733-2.25,1.2913-2.25,1.8178,0,1.4334,3.4254,2.2408,5.7846,1.3636,2.6427-0.9827,8.2154-8.6225,8.2154-11.263,0-1.1571,0.66441-2.0086,1.5674-2.0086,1.0645,0,1.3808,0.5879,0.98586,1.8322-0.36015,1.1348,0.18519,2.5261,1.4326,3.655,1.1827,1.0703,2.0141,3.0856,2.0141,4.8821,0,5.8394,2.8512,0.6358,4.5455-8.2957,2.4214-12.764,5.7341-18.332,9.9465-16.715,2.6646,1.0225,1.355,6.5992-3.4484,14.684-3.9858,6.7091-5.7542,12.071-2.2068,6.6913,3.4278-5.1984,9.7543-8.0092,8.9679-3.9844-0.18813,0.9628-1.2332,1.75-2.3233,1.75-1.0898,0-2.5837,0.3886-3.3198,0.8637-1.0297,0.6644-0.79904,1.1339,1,2.035,1.773,0.8881,2.2582,1.8469,2.0065,3.9653-0.30323,2.5525-0.15196,2.6977,1.75,1.6798,1.2709-0.6801,2.0819-2.1043,2.0819-3.6559,0-2.9893,4.9707-8.3879,7.7231-8.3879,1.0323,0,2.4169,0.54,3.0769,1.2,0.93333,0.9333,1.2,0.9333,1.2,0,0-0.66,0.72314-1.2,1.607-1.2,1.1221,0,1.4024,0.528,0.92899,1.75-0.3729,0.9625-0.93373,3.8875-1.2463,6.5-0.62852,5.2535,0.5709,6.2148,3.1536,2.5275,0.85618-1.2224,1.5567-1.7725,1.5567-1.2225,0,2.0056-3.1628,5.445-5.007,5.445-1.0415,0-2.2873-0.7035-2.7684-1.5632-0.79332-1.4176-0.99565-1.4176-2.1721,0-1.5405,1.8562-5.1672,2.0484-6.8524,0.3632-0.93333-0.9333-1.4667-0.9333-2.4,0-1.5516,1.5516-4.4718,1.5401-5.4368-0.021-0.41517-0.6718-0.65958-2.4718-0.54313-4,0.29011-3.8075-1.47-3.4863-3.9526,0.7214-1.9456,3.2975-4.8675,4.7642-4.8675,2.4433,0-0.5923-0.97677-0.3726-2.2225,0.5-2.8139,1.9709-8.1547,2.012-9.7622,0.075-1.0862-1.3089-1.4763-1.3089-3.345,0-2.4081,1.6867-7.781,1.9709-9.262,0.4898-0.65566-0.6556-2.0742-0.5831-4.186,0.214-2.5309,0.9553-3.4568,0.9428-4.4582-0.06-1.6741-1.6768-1.3696-9.1066,0.6986-17.049,2.6902-10.331-1.4393-10.644-5.9039-0.4473-0.76235,1.741-1.9367,6.5785-2.6096,10.75-0.96531,5.9839-1.5814,7.5844-2.9196,7.5844-0.93288,0-1.9108-0.2147-2.1732-0.4771zm70.071-3.1578c2.4306-3.0899,2.9184-10.365,0.69503-10.365-1.9826,0-3.2678,1.9051-4.5694,6.7731-1.7352,6.4895,0.19071,8.2751,3.8744,3.592zm-30.427-1.3651c0.8232-2.5937-0.33745-6.2209-1.8312-5.7229-0.63883,0.2129-1.4298,2.0377-1.7577,4.055-0.49906,3.0703-0.30697,3.6679,1.179,3.6679,0.97636,0,2.0608-0.9,2.41-2zm-12.472-4.0519c1.418-2.6495,1.1891-4.9481-0.4926-4.9481-1.7255,0-3.5352,3.0218-3.5352,5.9029,0,2.4374,2.5338,1.8368,4.0278-0.9548zm29.107-13.519c1.9454-4.3981,1.9477-7.429,0.006-7.429-1.2512,0-3.7426,6.4921-4.605,12-0.68125,4.3505-0.65016,4.4253,0.93562,2.2518,0.90216-1.2365,2.5509-4.3068,3.6639-6.8228zm26.866,20.571c0-1.2889,0.50641-1.9979,1.25-1.75,0.6875,0.2292,1.25,1.0167,1.25,1.75s-0.5625,1.5208-1.25,1.75c-0.74359,0.2478-1.25-0.4611-1.25-1.75zm16.12-0.2059c-0.44881-1.2133-0.44505-3.8008,0.008-5.75,0.45341-1.9493,0.83512-4.1764,0.84824-4.9491,0.0444-2.615-3.6723,1.7712-5.9115,6.9763-1.2774,2.9704-2.7562,4.9287-3.7213,4.9287-1.365,0-1.5017-0.8807-0.92644-5.9656,1.4422-12.747,5.3712-23.177,8.9938-23.875,5.0732-0.977,4.4256,5.6898-1.4332,14.755-4.8403,7.4889-5.1716,9.8009-0.65584,4.5769,2.4534-2.8382,3.7955-3.6602,5.136-3.1458,1.6026,0.615,1.7347,1.4767,1.1305,7.3742l-0.68416,6.6778,2.0482-1.8536c1.1265-1.0195,2.0482-2.5191,2.0482-3.3326,0-3.1958,2.389-9.211,3.6583-9.211,1.5027,0,1.5742,1.3617,0.43523,8.2856-0.43299,2.6321-0.4422,4.9989-0.0205,5.2595,1.2893,0.7968,4.5682-4.1922,5.9138-8.998,0.7726-2.7593,1.8517-4.5471,2.7447-4.5471,1.2222,0,1.3524,1.1861,0.76855,7-0.7365,7.3337,0.13924,8.9111,2.4992,4.5015,0.73544-1.3742,1.5474-2.2882,1.8044-2.0312,0.25701,0.257-0.29711,1.6339-1.2314,3.0597-2.1103,3.2208-5.7435,3.0231-6.5352-0.3556l-0.54492-2.3256-2.2395,2.5756c-2.4522,2.8202-4.2088,3.2194-6.0527,1.3756-0.93333-0.9333-1.4667-0.9333-2.4,0-1.9071,1.9071-4.7918,1.3962-5.6805-1.0059zm1.1771-24.434c0.13954-1.9627-0.26598-2.8602-1.2923-2.8602-1.5702,0-3.2709,4.2402-4.4119,11l-0.67518,4,3.088-4.6398c1.6984-2.5519,3.1795-5.9269,3.2914-7.5z" fill="#063"/>
 </g>
</svg>
