<?xml version="1.0" encoding="UTF-8" standalone="no"?>
<!-- Generator: Adobe Illustrator 19.2.1, SVG Export Plug-In . SVG Version: 6.00 Build 0)  -->
<svg id="Capa_1" xmlns:rdf="http://www.w3.org/1999/02/22-rdf-syntax-ns#" xmlns="http://www.w3.org/2000/svg" xml:space="preserve" viewBox="0 0 43 150" height="100%" width="100%" version="1.1" y="0px" x="0px" xmlns:cc="http://creativecommons.org/ns#" xmlns:dc="http://purl.org/dc/elements/1.1/">
<metadata id="metadata13">
    <rdf:RDF>
        <cc:Work rdf:about="">
            <dc:format>image/svg+xml</dc:format>
            <dc:type rdf:resource="http://purl.org/dc/dcmitype/StillImage"/>
            <dc:title/>
        </cc:Work>
    </rdf:RDF>
</metadata>
<style id="style3" type="text/css">
	.st0{enable-background:new    ;}
</style>
<g id="g5" style="enable-background:new;" transform="matrix(1.0533708,0,0,1.0533708,-7.0575844,-18.012643)" class="st0">
    <path id="path7" fill="#adadad" d="m12.6,159.1-3,0.4c-0.6,0-1.2-0.5-1.8-1.4s-1-1.8-1.1-2.5l1.8-1.4c2.4-4.3,8.3-16,17.6-34.8,9.4-18.9,14-28.9,14-30,0-7.1-3.9-18.4-11.6-34-8.2-16.2-12.8-28.3-14-36.3l2.6-2c1.9,0.4,3.5,2.9,5,7.5,0.5,1.6,1,3.6,1.7,5.9,0.6,2.3,1.2,4.2,1.7,5.6s2.6,6.5,6.5,15.1c10.2,23,15.3,35.6,15.3,37.9s-1.3,5.1-3.8,8.5-4,5.7-4.5,7c-0.5,1.2-1.3,2.9-2.4,5.1s-1.8,3.6-2.1,4.3l-17.6,36.6c-2.5,5-3.9,7.9-4.3,8.5z"/>
</g>
</svg>
