<?xml version="1.0" encoding="UTF-8" standalone="no"?>
<!-- Generator: Adobe Illustrator 19.2.1, SVG Export Plug-In . SVG Version: 6.00 Build 0)  -->
<svg id="Capa_1" xmlns:rdf="http://www.w3.org/1999/02/22-rdf-syntax-ns#" xmlns="http://www.w3.org/2000/svg" xml:space="preserve" viewBox="0 0 43 150" height="100%" width="100%" version="1.1" y="0px" x="0px" xmlns:cc="http://creativecommons.org/ns#" xmlns:dc="http://purl.org/dc/elements/1.1/"><metadata id="metadata13"><rdf:RDF><cc:Work rdf:about=""><dc:format>image/svg+xml</dc:format><dc:type rdf:resource="http://purl.org/dc/dcmitype/StillImage"/><dc:title/></cc:Work></rdf:RDF></metadata><style id="style3" type="text/css">
	.st0{enable-background:new    ;}
</style>
<g id="g5" style="enable-background:new;" transform="matrix(1.0533708,0,0,1.0533708,-15.800562,-13.799159)" class="st0">
<path id="path7" fill="#adadad" d="m52.8,155.5-2.7-0.4h-0.4c-2.1-3.1-4.4-7.5-6.9-13.1s-4.1-9.2-4.8-10.7l-10.2-21.3c-0.3-0.7-1.1-2.2-2.2-4.4s-1.9-3.9-2.4-5.1c-0.4-1.2-1.9-3.5-4.4-6.9s-3.8-6-3.8-7.8,1.6-6.6,4.8-14.2,6.7-15.8,10.6-24.4c3.8-8.7,6-13.7,6.5-15.1s1-3.3,1.7-5.6c0.6-2.3,1.2-4.2,1.8-5.9,1.5-4.7,3.2-7.2,4.9-7.5l2.7,2c-1.2,8-5.9,20-14,36.3-7.8,15.6-11.6,26.9-11.6,34,0,1.1,4.7,11.3,14.1,30.5s15.2,30.7,17.4,34.3l1.8,1.4c-0.1,0.7-0.5,1.6-1.1,2.5s-1.2,1.4-1.8,1.4z"/></g></svg>
