<?xml version="1.0" encoding="utf-8"?>
<!-- Generator: Adobe Illustrator 19.2.1, SVG Export Plug-In . SVG Version: 6.00 Build 0)  -->
<svg version="1.1" id="Réteg_1" xmlns="http://www.w3.org/2000/svg" xmlns:xlink="http://www.w3.org/1999/xlink" x="0px" y="0px"
	 viewBox="0 0 195 195" style="enable-background:new 0 0 195 195;" xml:space="preserve">
<g>
	<path stroke="#000000"  d="M74.6,172.5c6.8,0,12.4-5.5,12.4-12.4c0-3.5-1.5-6.9-4.2-9.2l-4.8-4.9l6.6-6.6c3.8,2.5,8.3,4,13.2,4
		c4.8,0,9.2-1.4,12.9-3.9l6.5,6.4l-4.8,4.8c-2.7,2.3-4.2,5.7-4.2,9.3c0,6.8,5.5,12.4,12.3,12.4c3.4,0,6.8-1.5,9.1-4l9.2-9.5
		c2.9-2.4,4.6-5.9,4.6-9.6c0-3.1-1.1-6.1-3.1-8.4l-7.7-7.7c0.1-0.2,0.2-0.4,0.2-0.6v-43c0-6.8-5.5-12.3-12.4-12.3h-14.3
		c8-3.1,13.7-10.9,13.7-19.9c0-11.8-9.6-21.4-21.4-21.4h-9.9c-3.3,0-6-2.7-6-6c0-3.3,2.7-6,6-6c1.5,0,2.8,1.2,2.8,2.8
		c0,1.5-1.2,2.8-2.8,2.8c-0.5,0-0.9,0.4-0.9,0.9c0,0.5,0.4,0.9,0.9,0.9c2.5,0,4.5-2,4.5-4.5c0-2.5-2-4.5-4.5-4.5
		c-4.3,0-7.7,3.5-7.7,7.7c0,4.3,3.5,7.7,7.7,7.7h1.4C82.3,41.2,77,48.8,77,57.5c0,9.1,5.7,16.8,13.7,19.9H75
		c-6.8,0-12.4,5.5-12.4,12.3v43c0,0.1,0,0.2,0.1,0.3l-8,8c-2,2.2-3.1,5.2-3.1,8.3c0,3.7,1.7,7.3,4.5,9.5l9.3,9.5
		C67.8,171,71.1,172.5,74.6,172.5L74.6,172.5z M78.8,57.5c0-10.8,8.8-19.6,19.6-19.6c10.8,0,19.6,8.8,19.6,19.6
		c0,10.8-8.8,19.6-19.6,19.6C87.6,77.2,78.8,68.4,78.8,57.5L78.8,57.5z M75.9,119.9L75.9,119.9l43.7-0.1v0.1c0,0.7,0,1.3-0.1,1.9
		c-0.1,0.2-0.1,0.4-0.1,0.7c-1.3,10.8-10.5,19.2-21.7,19.2C85.7,141.8,75.9,132,75.9,119.9L75.9,119.9z M141.6,149.4
		c0,3.2-1.4,6.2-4,8.3l-9.3,9.6c-2,2.2-4.9,3.5-7.8,3.5c-5.8,0-10.6-4.7-10.6-10.6c0-3,1.3-5.9,3.7-8l5.5-5.5
		c0.2-0.2,0.3-0.4,0.3-0.6c0-0.2-0.1-0.5-0.3-0.6l-6.9-6.8c4.5-3.5,7.8-8.6,8.8-14.4l18.1,18C140.6,144.2,141.6,146.8,141.6,149.4
		L141.6,149.4z M64.4,89.8c0-5.8,4.7-10.6,10.6-10.6h45.4c5.8,0,10.6,4.7,10.6,10.6v42l-9.8-9.8c0.1-0.7,0.1-1.4,0.1-2.1V97
		c0-0.5-0.4-0.9-0.9-0.9c-0.5,0-0.9,0.4-0.9,0.9v21.1H75.9V97c0-0.5-0.4-0.9-0.9-0.9c-0.5,0-0.9,0.4-0.9,0.9v22.9
		c0,0.6,0.1,1.1,0.1,1.7c0,0,0,0,0,0l-9.7,9.7V89.8z M53.4,149.4c0-2.7,1-5.3,2.6-7.1l18.5-18.5c1,5.9,4.2,11,8.6,14.6l-7.1,7
		c-0.2,0.2-0.3,0.4-0.3,0.6c0,0.2,0.1,0.5,0.3,0.6l5.5,5.5c2.3,2,3.6,4.9,3.6,7.9c0,5.8-4.7,10.6-10.6,10.6c-2.9,0-5.8-1.3-7.8-3.5
		l-9.4-9.6C54.8,155.6,53.4,152.6,53.4,149.4L53.4,149.4z M53.4,149.4"/>
</g>
</svg>
